<svg xmlns="http://www.w3.org/2000/svg" width="76" height="76" viewBox="0 0 76 76"><defs><mask id="wy0db" width="2" height="2" x="-1" y="-1"><path fill="#fff" d="M8 4h60v60H8z"/><path d="M68 34c0 16.569-13.431 30-30 30C21.431 64 8 50.569 8 34 8 17.431 21.431 4 38 4c16.569 0 30 13.431 30 30z"/></mask><filter id="wy0da" width="96" height="100" x="-10" y="-14" filterUnits="userSpaceOnUse"><feOffset dy="4" in="SourceGraphic" result="FeOffset1025Out"/><feGaussianBlur in="FeOffset1025Out" result="FeGaussianBlur1026Out" stdDeviation="3.2 3.2"/></filter></defs><g><g><g><g filter="url(#wy0da)"><path fill="none" d="M68 34c0 16.569-13.431 30-30 30C21.431 64 8 50.569 8 34 8 17.431 21.431 4 38 4c16.569 0 30 13.431 30 30z" mask="url(&quot;#wy0db&quot;)"/><path fill-opacity=".4" d="M68 34c0 16.569-13.431 30-30 30C21.431 64 8 50.569 8 34 8 17.431 21.431 4 38 4c16.569 0 30 13.431 30 30z"/></g><path fill="#ce1b1b" d="M68 34c0 16.569-13.431 30-30 30C21.431 64 8 50.569 8 34 8 17.431 21.431 4 38 4c16.569 0 30 13.431 30 30z"/></g><g transform="rotate(90 38 34)"><path fill="#fff" d="M37.134 21.5a1 1 0 0 1 1.732 0l10.392 18a1 1 0 0 1-.866 1.5H27.608a1 1 0 0 1-.866-1.5z"/></g></g></g></svg>